<svg width="557" height="111" viewBox="0 0 557 111" fill="none" xmlns="http://www.w3.org/2000/svg">
<path d="M155.185 88.3419C150.69 88.3419 146.921 87.47 143.877 85.7257C140.832 83.9813 138.44 81.6193 136.7 78.6396V33.7251C138.585 30.6 141.049 28.1653 144.094 26.421C147.138 24.6768 150.836 23.8046 155.185 23.8046C160.911 23.8046 165.804 25.1855 169.864 27.9472C173.923 30.709 177.04 34.5246 179.215 39.3939C181.462 44.2633 182.585 49.8594 182.585 56.1825C182.585 62.4328 181.462 67.9927 179.215 72.8616C177.04 77.7311 173.923 81.5466 169.864 84.3082C165.804 86.9977 160.911 88.3419 155.185 88.3419ZM123 108.401V25.5489H136.7V108.401H123ZM153.01 76.0234C156.344 76.0234 159.172 75.1876 161.491 73.5159C163.811 71.7716 165.55 69.4096 166.711 66.4298C167.943 63.3774 168.559 59.9615 168.559 56.1825C168.559 52.3304 167.943 48.8783 166.711 45.8258C165.55 42.7734 163.811 40.4114 161.491 38.7398C159.172 36.9956 156.344 36.1234 153.01 36.1234C149.313 36.1234 146.269 37.0319 143.877 38.8489C141.485 40.5931 139.672 42.9915 138.44 46.0439C137.28 49.0236 136.7 52.4031 136.7 56.1825C136.7 59.8887 137.28 63.2686 138.44 66.3211C139.672 69.3008 141.485 71.6628 143.877 73.4066C146.269 75.1509 149.313 76.0234 153.01 76.0234Z" fill="white"/>
<path d="M216.984 88.3552C210.791 88.3552 205.353 87.0107 200.672 84.3207C196.063 81.5585 192.462 77.7422 189.87 72.8717C187.349 68.0018 186.089 62.4408 186.089 56.1892C186.089 49.8648 187.349 44.2675 189.87 39.3971C192.462 34.5268 196.063 30.7104 200.672 27.9481C205.353 25.1858 210.827 23.8046 217.093 23.8046C223.286 23.8046 228.688 25.1858 233.297 27.9481C237.906 30.7104 241.471 34.5268 243.992 39.3971C246.584 44.2675 247.881 49.8648 247.881 56.1892C247.881 62.4408 246.584 68.0018 243.992 72.8717C241.471 77.7422 237.906 81.5585 233.297 84.3207C228.688 87.0107 223.25 88.3552 216.984 88.3552ZM217.093 76.0341C220.765 76.0341 223.862 75.1982 226.383 73.5262C228.904 71.7815 230.812 69.419 232.108 66.4386C233.405 63.3856 234.053 59.9689 234.053 56.1892C234.053 52.3363 233.405 48.8835 232.108 45.8304C230.812 42.7773 228.904 40.4148 226.383 38.7429C223.862 36.9983 220.765 36.126 217.093 36.126C213.348 36.126 210.215 36.9983 207.694 38.7429C205.174 40.4148 203.265 42.7773 201.969 45.8304C200.672 48.8835 200.024 52.3363 200.024 56.1892C200.024 59.9689 200.672 63.3856 201.969 66.4386C203.265 69.419 205.174 71.7815 207.694 73.5262C210.215 75.1982 213.348 76.0341 217.093 76.0341Z" fill="white"/>
<path d="M323.347 88.342C318.867 88.342 315.109 87.4701 312.074 85.7257C309.039 83.9814 306.654 81.6194 304.92 78.6396V33.7252C306.798 30.6 309.256 28.1653 312.291 26.4211C315.326 24.6769 319.011 23.8047 323.347 23.8047C329.056 23.8047 333.934 25.1856 337.981 27.9473C342.028 30.709 345.135 34.5246 347.303 39.394C349.543 44.2633 350.663 49.8595 350.663 56.1826C350.663 62.4329 349.543 67.9927 347.303 72.8617C345.135 77.7311 342.028 81.5467 337.981 84.3083C333.934 86.9978 329.056 88.342 323.347 88.342ZM291.262 108.401V25.549H304.92V108.401H291.262ZM321.179 76.0234C324.504 76.0234 327.322 75.1876 329.634 73.516C331.947 71.7717 333.681 69.4096 334.837 66.4299C336.066 63.3775 336.68 59.9615 336.68 56.1826C336.68 52.3304 336.066 48.8783 334.837 45.8259C333.681 42.7735 331.947 40.4114 329.634 38.7399C327.322 36.9956 324.504 36.1235 321.179 36.1235C317.494 36.1235 314.458 37.0319 312.074 38.8489C309.689 40.5931 307.883 42.9915 306.654 46.044C305.498 49.0237 304.92 52.4031 304.92 56.1826C304.92 59.8888 305.498 63.2687 306.654 66.3211C307.883 69.3008 309.689 71.6629 312.074 73.4067C314.458 75.151 317.494 76.0234 321.179 76.0234Z" fill="white"/>
<path d="M500.091 88.3419C504.572 88.3419 508.33 87.47 511.365 85.7257C514.4 83.9813 516.785 81.6193 518.519 78.6396V33.7251C516.64 30.6 514.183 28.1653 511.148 26.421C508.113 24.6768 504.428 23.8046 500.091 23.8046C494.383 23.8046 489.505 25.1855 485.458 27.9472C481.411 30.709 478.304 34.5246 476.136 39.3939C473.896 44.2633 472.776 49.8594 472.776 56.1825C472.776 62.4328 473.896 67.9927 476.136 72.8616C478.304 77.7311 481.411 81.5466 485.458 84.3082C489.505 86.9977 494.383 88.3419 500.091 88.3419ZM532.177 88.3419V25.5489H518.519V88.3419H532.177ZM502.26 76.0234C498.935 76.0234 496.117 75.1875 493.805 73.5159C491.492 71.7716 489.758 69.4096 488.602 66.4298C487.373 63.3774 486.759 59.9614 486.759 56.1825C486.759 52.3304 487.373 48.8783 488.602 45.8258C489.758 42.7734 491.492 40.4114 493.805 38.7398C496.117 36.9956 498.935 36.1234 502.26 36.1234C505.945 36.1234 508.98 37.0319 511.365 38.8489C513.75 40.5931 515.556 42.9915 516.785 46.0439C517.941 49.0236 518.519 52.4031 518.519 56.1825C518.519 59.8887 517.941 63.2686 516.785 66.321C515.556 69.3008 513.75 71.6628 511.365 73.4066C508.98 75.1509 505.945 76.0234 502.26 76.0234Z" fill="white"/>
<path d="M360.483 25.7431H373.756V86.5157H360.483V25.7431ZM356.554 4.25561L371.101 0.999939L374.393 15.8675L359.846 19.2318L356.554 4.25561Z" fill="white"/>
<path d="M542.629 25.7432H555.902V86.5157H542.629V25.7432ZM538.701 4.25567L553.248 1L556.539 15.8676L541.992 19.2319L538.701 4.25567Z" fill="white"/>
<path d="M394.673 60.6595V49.4287H430.298L425.425 52.591C425.714 49.8285 425.353 47.2115 424.342 44.74C423.404 42.1958 421.852 40.124 419.686 38.5248C417.52 36.9256 414.705 36.126 411.24 36.126C406.547 36.126 402.613 37.6162 399.437 40.5965C396.261 43.5769 394.673 47.8658 394.673 53.4631H380.271C380.704 47.1389 382.328 41.796 385.144 37.4345C388.031 33.0002 391.713 29.62 396.189 27.2939C400.737 24.9677 405.754 23.8046 411.24 23.8046C415.355 23.8046 419.217 24.6406 422.826 26.3125C426.508 27.9118 429.648 30.3106 432.247 33.509C434.918 36.6348 436.867 40.4875 438.095 45.0671C439.394 49.6467 439.646 54.8442 438.853 60.6595H394.673ZM411.24 88.3552C405.537 88.3552 400.484 87.1923 396.08 84.8664C391.677 82.54 388.139 79.3054 385.468 75.1615C382.797 71.0182 381.137 66.1844 380.487 60.6595H394.673C395.25 65.1663 396.874 68.8739 399.545 71.7815C402.216 74.6164 406.115 76.0341 411.24 76.0341C414.849 76.0341 417.737 75.1982 419.903 73.5262C422.14 71.7815 423.729 69.6732 424.667 67.2019H438.961C438.095 71.4179 436.398 75.1254 433.871 78.3239C431.345 81.4497 428.169 83.921 424.342 85.7385C420.516 87.4831 416.149 88.3552 411.24 88.3552Z" fill="white"/>
<path d="M284.755 86.368V74.8666H271.148V37.3657H283.054V25.7023H271.148V1.07959H257.784V25.7023H249.765V37.3657H257.784V86.368H284.755Z" fill="white"/>
<path d="M463.68 70.0426L449.133 73.2983L452.424 88.2745L466.972 84.9102L463.68 70.0426Z" fill="white"/>
<path fill-rule="evenodd" clip-rule="evenodd" d="M44.166 4.7323C50.5254 -1.57743 60.7774 -1.57743 67.1373 4.73231C70.5266 8.09471 75.2182 9.80323 79.9743 9.40778C87.4206 8.78733 94.1215 13.2771 96.6127 19.9648L60.4458 40.6003L57.5154 42.3045C54.9707 43.7858 53.3879 46.4906 53.3455 49.4357L53.1345 63.9885L53.1345 68.2973C53.1345 71.3995 54.8346 74.2638 57.5793 75.743L90.7272 93.6083C87.8492 95.2556 85.51 97.7595 84.0682 100.818C80.2487 108.924 70.6142 112.433 62.4825 108.681C58.1479 106.68 53.1554 106.68 48.8207 108.681C40.6888 112.433 31.0543 108.924 27.2347 100.818C25.1991 96.4985 21.3746 93.2871 16.7695 92.031C8.12967 89.6753 3.00356 80.79 5.28394 72.1229C6.49927 67.504 5.63245 62.5837 2.91123 58.66C-2.19302 51.2972 -0.412939 41.1946 6.90018 36.0232C10.7984 33.2659 13.2946 28.94 13.731 24.1837C14.5503 15.2609 22.4041 8.66496 31.3285 9.40777C36.0849 9.80323 40.7762 8.0947 44.166 4.7323Z" fill="#B6E343"/>
<path fill-rule="evenodd" clip-rule="evenodd" d="M63.5397 47.4661L63.6064 47.3349L63.6719 47.2323C63.6185 47.3066 63.5733 47.383 63.5397 47.4661ZM98.8153 82.8126C99.4004 83.1294 99.6929 83.2881 99.8477 83.5492C99.9744 83.7624 100.029 84.0654 99.9849 84.3095C99.9304 84.6081 99.7331 84.8345 99.3381 85.2868C98.7205 85.9942 98.0401 86.6515 97.3025 87.2476C96.9196 87.5572 96.7284 87.712 96.4496 87.8062C96.2243 87.8828 95.9196 87.9114 95.6844 87.8778C95.393 87.836 95.1417 87.7004 94.6393 87.4299L61.0248 69.325C60.6413 69.1173 60.4022 68.7156 60.4022 68.2788L60.4022 63.97C60.4022 63.072 61.3592 62.4996 62.1481 62.926L98.8153 82.8126Z" fill="#B6E343"/>
<path fill-rule="evenodd" clip-rule="evenodd" d="M98.6575 30.9076C99.1528 29.5283 99.4007 28.8386 99.2432 28.4489C99.1065 28.1113 98.8118 27.863 98.4564 27.7854C98.0455 27.6958 97.4075 28.0562 96.1316 28.7769L64.0486 46.8979C63.8938 46.9874 63.7704 47.101 63.675 47.2322L63.6095 47.3349L63.5428 47.4659C63.4685 47.6451 63.4393 47.8395 63.4547 48.0274L63.4602 48.0821C63.5059 48.4447 63.7158 48.7877 64.0871 48.9822L98.1953 68.2509C98.8333 68.6118 99.1523 68.7919 99.3578 68.7467C99.5357 68.7082 99.6828 68.5842 99.7511 68.4151C99.8299 68.2206 99.7059 67.8757 99.4586 67.186L92.7605 48.5269C92.6811 48.3062 92.6415 48.1959 92.626 48.0826C92.6123 47.9822 92.6123 47.8803 92.626 47.7798C92.6415 47.6666 92.6811 47.5562 92.7605 47.3356L98.6575 30.9076Z" fill="#B6E343"/>
</svg>
